# xmcd
#
# Track frame offsets: 
#        150
#        24973
#        40294
#        76760
#        96406
#        123979
#        140219
#        161729
#        175028
#
# Disc length: 2591 seconds
#
# Revision: 2
# Processed by: cddbd v1.5.2PL0 Copyright (c) Steve Scherf et al.
# Submitted via: ExactAudioCopy v0.99pb4
#
DISCID=6f0a1d09
DTITLE=Keef Hartley Band - Overdog
DYEAR=1970
DGENRE=Rock
TTITLE0=You Can choose
TTITLE1=Plain Talkin'
TTITLE2=Theme Song - En Route - Theme Song - Reprise
TTITLE3=Overdog
TTITLE4=Roundabout
TTITLE5=Imitations From Home
TTITLE6=We Are All the Same
TTITLE7=Roundabout (Part One)
TTITLE8=Roundabout (Part Two)
EXTD=
EXTT0=
EXTT1=
EXTT2=
EXTT3=
EXTT4=
EXTT5=
EXTT6=
EXTT7=
EXTT8=
PLAYORDER=
